<svg width="375" height="281" viewBox="0 0 375 281" fill="none" xmlns="http://www.w3.org/2000/svg">
<path fill-rule="evenodd" clip-rule="evenodd" d="M181 -19C238.706 -31.4382 336.863 -64.9737 373.891 -19C399.289 12.5342 367.896 -48.0554 389 -13.5C410.696 22.0243 382.835 65.3846 399.5 103.529C424.965 161.816 395 147.5 390 205C390 265 374.183 276.813 306.5 278.5C238.5 269 226.5 251.5 179.5 251.5C139.144 254.704 95.5 283.5 57.5 280.5C14 271 11.6529 253.407 -4.46402 216.149C-19.6991 180.929 -5.85754 140.671 -15.5025 103.529C-29.3897 50.0514 -1.43051e-05 32 -4.46402 -13.5C28.9435 -60.9775 47.6314 19.3447 95.5 -13.5C150.285 -51.0901 116.051 -5.00059 181 -19Z" fill="#1A7BE2"/>
</svg>
