<svg width="100" height="99" viewBox="0 0 100 99" fill="none" xmlns="http://www.w3.org/2000/svg">
<ellipse cx="50" cy="49.5" rx="50" ry="49.5" fill="white"/>
<path fill-rule="evenodd" clip-rule="evenodd" d="M28.5627 62.0961C25.3693 65.3077 20.0033 71.0373 17 74.4335L21.4941 79.3797L38.6076 62.5363C21.1163 45.2954 31.0948 23.8779 47.2041 19.7829C61.9849 16.0256 75.6784 26.7072 76.9536 40.3153C77.2418 43.3913 76.6168 49.9111 82.7788 52.6699C92.1 10.3708 39.258 -2.05253 24.82 30.3298C18.8039 43.8227 23.5894 52.7715 28.5627 62.0961Z" stroke="#040404" stroke-width="3" stroke-miterlimit="22.9256"/>
<path fill-rule="evenodd" clip-rule="evenodd" d="M53.4542 76.3149C50.271 73.588 48.1738 71.2031 45.6976 68.8126L40.5306 73.5451C43.1169 76.3491 51.564 84.8992 53.2373 86.5009C56.1862 83.6406 75.912 63.7384 77.2942 61.9053L72.6447 57.6249L53.4542 76.3149Z" stroke="#040404" stroke-width="3" stroke-miterlimit="22.9256"/>
<path fill-rule="evenodd" clip-rule="evenodd" d="M35.7062 42.9842L40.2144 42.9869C41.2414 39.6317 41.7399 36.8822 44.7323 33.9289C47.9922 30.7116 49.7289 30.863 53.1911 29.8822L53.1708 25.5984C43.1091 25.3617 36.1254 33.1911 35.7062 42.9842Z" stroke="#040404" stroke-width="3" stroke-miterlimit="22.9256"/>
</svg>
